<mxfile host="app.diagrams.net" modified="2021-08-22T14:53:39.844Z" agent="5.0 (Macintosh; Intel Mac OS X 10_15_7) AppleWebKit/537.36 (KHTML, like Gecko) Chrome/92.0.4515.159 Safari/537.36" etag="w4s-_3XNgVCk5ma-JD6j" version="14.7.0" type="github">
  <diagram id="jPGTjq4C7aeMrTbWPzkC" name="Page-1">
    <mxGraphModel dx="2406" dy="939" grid="0" gridSize="10" guides="1" tooltips="1" connect="1" arrows="1" fold="1" page="0" pageScale="1" pageWidth="827" pageHeight="1169" math="0" shadow="0">
      <root>
        <mxCell id="0" />
        <mxCell id="1" parent="0" />
        <mxCell id="-j3xsVtCKZbW_aCNZZ6a-4" style="edgeStyle=orthogonalEdgeStyle;rounded=0;orthogonalLoop=1;jettySize=auto;html=1;" parent="1" source="-j3xsVtCKZbW_aCNZZ6a-1" target="-j3xsVtCKZbW_aCNZZ6a-3" edge="1">
          <mxGeometry relative="1" as="geometry" />
        </mxCell>
        <mxCell id="-j3xsVtCKZbW_aCNZZ6a-9" value="&lt;font style=&quot;font-size: 13px&quot;&gt;创建好新主题, 复制主题变量给业务研发&lt;/font&gt;" style="edgeLabel;html=1;align=center;verticalAlign=middle;resizable=0;points=[];" parent="-j3xsVtCKZbW_aCNZZ6a-4" vertex="1" connectable="0">
          <mxGeometry x="-0.0533" y="3" relative="1" as="geometry">
            <mxPoint as="offset" />
          </mxGeometry>
        </mxCell>
        <mxCell id="lR92ITVpg_u_R1GHCt2Q-1" value="" style="edgeStyle=orthogonalEdgeStyle;rounded=0;orthogonalLoop=1;jettySize=auto;html=1;" edge="1" parent="1" source="-j3xsVtCKZbW_aCNZZ6a-1" target="-j3xsVtCKZbW_aCNZZ6a-22">
          <mxGeometry relative="1" as="geometry" />
        </mxCell>
        <mxCell id="-j3xsVtCKZbW_aCNZZ6a-1" value="设计同学" style="shape=umlActor;verticalLabelPosition=bottom;verticalAlign=top;html=1;outlineConnect=0;" parent="1" vertex="1">
          <mxGeometry x="-748" y="60" width="30" height="60" as="geometry" />
        </mxCell>
        <mxCell id="-j3xsVtCKZbW_aCNZZ6a-12" style="edgeStyle=orthogonalEdgeStyle;rounded=0;orthogonalLoop=1;jettySize=auto;html=1;exitX=0.5;exitY=0.5;exitDx=0;exitDy=0;exitPerimeter=0;" parent="1" source="-j3xsVtCKZbW_aCNZZ6a-3" target="-j3xsVtCKZbW_aCNZZ6a-10" edge="1">
          <mxGeometry relative="1" as="geometry" />
        </mxCell>
        <mxCell id="-j3xsVtCKZbW_aCNZZ6a-16" value="&lt;font style=&quot;font-size: 13px&quot;&gt;将主题变量复制给组件研发&lt;/font&gt;" style="edgeLabel;html=1;align=center;verticalAlign=middle;resizable=0;points=[];" parent="-j3xsVtCKZbW_aCNZZ6a-12" vertex="1" connectable="0">
          <mxGeometry x="-0.2364" relative="1" as="geometry">
            <mxPoint x="30" as="offset" />
          </mxGeometry>
        </mxCell>
        <mxCell id="-j3xsVtCKZbW_aCNZZ6a-3" value="业务研发同学" style="shape=umlActor;verticalLabelPosition=bottom;verticalAlign=top;html=1;outlineConnect=0;" parent="1" vertex="1">
          <mxGeometry x="-398" y="60" width="30" height="60" as="geometry" />
        </mxCell>
        <mxCell id="-j3xsVtCKZbW_aCNZZ6a-18" style="edgeStyle=orthogonalEdgeStyle;rounded=0;orthogonalLoop=1;jettySize=auto;html=1;exitX=0.5;exitY=0.5;exitDx=0;exitDy=0;exitPerimeter=0;entryX=0;entryY=0.5;entryDx=0;entryDy=0;" parent="1" source="-j3xsVtCKZbW_aCNZZ6a-10" target="-j3xsVtCKZbW_aCNZZ6a-17" edge="1">
          <mxGeometry relative="1" as="geometry" />
        </mxCell>
        <mxCell id="-j3xsVtCKZbW_aCNZZ6a-19" value="&lt;font style=&quot;font-size: 13px&quot;&gt;手动更新&lt;/font&gt;" style="edgeLabel;html=1;align=center;verticalAlign=middle;resizable=0;points=[];" parent="-j3xsVtCKZbW_aCNZZ6a-18" vertex="1" connectable="0">
          <mxGeometry x="-0.0837" y="-1" relative="1" as="geometry">
            <mxPoint x="10" y="-1" as="offset" />
          </mxGeometry>
        </mxCell>
        <mxCell id="-j3xsVtCKZbW_aCNZZ6a-10" value="组件研发同学" style="shape=umlActor;verticalLabelPosition=bottom;verticalAlign=top;html=1;outlineConnect=0;" parent="1" vertex="1">
          <mxGeometry x="-108" y="60" width="30" height="60" as="geometry" />
        </mxCell>
        <mxCell id="-j3xsVtCKZbW_aCNZZ6a-17" value="&lt;font style=&quot;font-size: 14px&quot;&gt;主题包、站点&lt;/font&gt;" style="rounded=0;whiteSpace=wrap;html=1;" parent="1" vertex="1">
          <mxGeometry x="110" y="60" width="120" height="60" as="geometry" />
        </mxCell>
        <mxCell id="-j3xsVtCKZbW_aCNZZ6a-20" style="edgeStyle=orthogonalEdgeStyle;rounded=0;orthogonalLoop=1;jettySize=auto;html=1;" parent="1" source="-j3xsVtCKZbW_aCNZZ6a-22" target="-j3xsVtCKZbW_aCNZZ6a-25" edge="1">
          <mxGeometry relative="1" as="geometry" />
        </mxCell>
        <mxCell id="-j3xsVtCKZbW_aCNZZ6a-30" value="某个主题变量配置错啦/不太合适, 麻烦修改下" style="edgeLabel;html=1;align=center;verticalAlign=middle;resizable=0;points=[];fontSize=13;" parent="-j3xsVtCKZbW_aCNZZ6a-20" vertex="1" connectable="0">
          <mxGeometry x="-0.1562" y="2" relative="1" as="geometry">
            <mxPoint x="13" y="2" as="offset" />
          </mxGeometry>
        </mxCell>
        <mxCell id="-j3xsVtCKZbW_aCNZZ6a-22" value="设计同学" style="shape=umlActor;verticalLabelPosition=bottom;verticalAlign=top;html=1;outlineConnect=0;" parent="1" vertex="1">
          <mxGeometry x="-748" y="180" width="30" height="60" as="geometry" />
        </mxCell>
        <mxCell id="-j3xsVtCKZbW_aCNZZ6a-23" style="edgeStyle=orthogonalEdgeStyle;rounded=0;orthogonalLoop=1;jettySize=auto;html=1;exitX=0.5;exitY=0.5;exitDx=0;exitDy=0;exitPerimeter=0;" parent="1" source="-j3xsVtCKZbW_aCNZZ6a-25" target="-j3xsVtCKZbW_aCNZZ6a-28" edge="1">
          <mxGeometry relative="1" as="geometry" />
        </mxCell>
        <mxCell id="-j3xsVtCKZbW_aCNZZ6a-24" value="&lt;font style=&quot;font-size: 13px&quot;&gt;某个变量配置错啦, 麻烦修改下&lt;/font&gt;" style="edgeLabel;html=1;align=center;verticalAlign=middle;resizable=0;points=[];" parent="-j3xsVtCKZbW_aCNZZ6a-23" vertex="1" connectable="0">
          <mxGeometry x="-0.2364" relative="1" as="geometry">
            <mxPoint x="30" as="offset" />
          </mxGeometry>
        </mxCell>
        <mxCell id="-j3xsVtCKZbW_aCNZZ6a-25" value="业务研发同学" style="shape=umlActor;verticalLabelPosition=bottom;verticalAlign=top;html=1;outlineConnect=0;" parent="1" vertex="1">
          <mxGeometry x="-398" y="180" width="30" height="60" as="geometry" />
        </mxCell>
        <mxCell id="-j3xsVtCKZbW_aCNZZ6a-26" style="edgeStyle=orthogonalEdgeStyle;rounded=0;orthogonalLoop=1;jettySize=auto;html=1;exitX=0.5;exitY=0.5;exitDx=0;exitDy=0;exitPerimeter=0;entryX=0;entryY=0.5;entryDx=0;entryDy=0;" parent="1" source="-j3xsVtCKZbW_aCNZZ6a-28" target="-j3xsVtCKZbW_aCNZZ6a-29" edge="1">
          <mxGeometry relative="1" as="geometry" />
        </mxCell>
        <mxCell id="-j3xsVtCKZbW_aCNZZ6a-27" value="&lt;font style=&quot;font-size: 13px&quot;&gt;手动更新&lt;/font&gt;" style="edgeLabel;html=1;align=center;verticalAlign=middle;resizable=0;points=[];" parent="-j3xsVtCKZbW_aCNZZ6a-26" vertex="1" connectable="0">
          <mxGeometry x="-0.0837" y="-1" relative="1" as="geometry">
            <mxPoint x="10" y="-1" as="offset" />
          </mxGeometry>
        </mxCell>
        <mxCell id="-j3xsVtCKZbW_aCNZZ6a-28" value="组件研发同学" style="shape=umlActor;verticalLabelPosition=bottom;verticalAlign=top;html=1;outlineConnect=0;" parent="1" vertex="1">
          <mxGeometry x="-108" y="180" width="30" height="60" as="geometry" />
        </mxCell>
        <mxCell id="-j3xsVtCKZbW_aCNZZ6a-29" value="&lt;font style=&quot;font-size: 14px&quot;&gt;主题包、站点&lt;/font&gt;" style="rounded=0;whiteSpace=wrap;html=1;" parent="1" vertex="1">
          <mxGeometry x="110" y="180" width="120" height="60" as="geometry" />
        </mxCell>
        <mxCell id="-j3xsVtCKZbW_aCNZZ6a-32" style="edgeStyle=orthogonalEdgeStyle;rounded=0;orthogonalLoop=1;jettySize=auto;html=1;entryX=0;entryY=0.5;entryDx=0;entryDy=0;" parent="1" source="-j3xsVtCKZbW_aCNZZ6a-34" target="-j3xsVtCKZbW_aCNZZ6a-46" edge="1">
          <mxGeometry relative="1" as="geometry">
            <mxPoint x="-398" y="450" as="targetPoint" />
          </mxGeometry>
        </mxCell>
        <mxCell id="-j3xsVtCKZbW_aCNZZ6a-33" value="创建/修改主题, 提交 mr" style="edgeLabel;html=1;align=center;verticalAlign=middle;resizable=0;points=[];fontSize=14;" parent="-j3xsVtCKZbW_aCNZZ6a-32" vertex="1" connectable="0">
          <mxGeometry x="-0.0533" y="3" relative="1" as="geometry">
            <mxPoint x="13" as="offset" />
          </mxGeometry>
        </mxCell>
        <mxCell id="-j3xsVtCKZbW_aCNZZ6a-34" value="设计同学" style="shape=umlActor;verticalLabelPosition=bottom;verticalAlign=top;html=1;outlineConnect=0;" parent="1" vertex="1">
          <mxGeometry x="-748" y="420" width="30" height="60" as="geometry" />
        </mxCell>
        <mxCell id="-j3xsVtCKZbW_aCNZZ6a-40" value="组件研发同学" style="shape=umlActor;verticalLabelPosition=bottom;verticalAlign=top;html=1;outlineConnect=0;" parent="1" vertex="1">
          <mxGeometry x="-270" y="470" width="30" height="60" as="geometry" />
        </mxCell>
        <mxCell id="-j3xsVtCKZbW_aCNZZ6a-48" style="edgeStyle=orthogonalEdgeStyle;rounded=0;orthogonalLoop=1;jettySize=auto;html=1;exitX=0.5;exitY=1;exitDx=0;exitDy=0;fontSize=14;dashed=1;dashPattern=1 1;" parent="1" source="-j3xsVtCKZbW_aCNZZ6a-46" target="-j3xsVtCKZbW_aCNZZ6a-34" edge="1">
          <mxGeometry relative="1" as="geometry">
            <mxPoint x="-740" y="670" as="targetPoint" />
            <Array as="points">
              <mxPoint x="-305" y="570" />
              <mxPoint x="-733" y="570" />
            </Array>
          </mxGeometry>
        </mxCell>
        <mxCell id="-j3xsVtCKZbW_aCNZZ6a-49" value="&lt;font style=&quot;font-size: 14px&quot;&gt;审核未通过&lt;/font&gt;" style="edgeLabel;html=1;align=center;verticalAlign=middle;resizable=0;points=[];fontSize=14;" parent="-j3xsVtCKZbW_aCNZZ6a-48" vertex="1" connectable="0">
          <mxGeometry x="0.0969" y="-1" relative="1" as="geometry">
            <mxPoint x="14" as="offset" />
          </mxGeometry>
        </mxCell>
        <mxCell id="-j3xsVtCKZbW_aCNZZ6a-51" style="edgeStyle=orthogonalEdgeStyle;rounded=0;orthogonalLoop=1;jettySize=auto;html=1;exitX=1;exitY=0.5;exitDx=0;exitDy=0;dashed=1;dashPattern=1 1;fontSize=14;" parent="1" source="-j3xsVtCKZbW_aCNZZ6a-46" target="-j3xsVtCKZbW_aCNZZ6a-50" edge="1">
          <mxGeometry relative="1" as="geometry" />
        </mxCell>
        <mxCell id="-j3xsVtCKZbW_aCNZZ6a-52" value="审核通过" style="edgeLabel;html=1;align=center;verticalAlign=middle;resizable=0;points=[];fontSize=14;" parent="-j3xsVtCKZbW_aCNZZ6a-51" vertex="1" connectable="0">
          <mxGeometry x="-0.0816" y="-2" relative="1" as="geometry">
            <mxPoint as="offset" />
          </mxGeometry>
        </mxCell>
        <mxCell id="-j3xsVtCKZbW_aCNZZ6a-46" value="审核通过?" style="rhombus;whiteSpace=wrap;html=1;fontSize=14;" parent="1" vertex="1">
          <mxGeometry x="-390" y="410" width="170" height="80" as="geometry" />
        </mxCell>
        <mxCell id="-j3xsVtCKZbW_aCNZZ6a-50" value="&lt;font style=&quot;font-size: 14px&quot;&gt;主题包发版&lt;br&gt;站点静默更新&lt;br&gt;&lt;/font&gt;" style="rounded=0;whiteSpace=wrap;html=1;" parent="1" vertex="1">
          <mxGeometry x="10" y="420" width="119" height="60" as="geometry" />
        </mxCell>
      </root>
    </mxGraphModel>
  </diagram>
</mxfile>
